<?xml version="1.0" encoding="UTF-8" standalone="no"?>
<!-- Created with Inkscape (http://www.inkscape.org/) -->

<svg
   width="320"
   height="320"
   viewBox="0 0 84.666666 84.666666"
   version="1.1"
   id="svg365"
   inkscape:version="1.2.2 (b0a8486541, 2022-12-01)"
   sodipodi:docname="sofia_logo.svg"
   inkscape:export-filename="icon_128x128.png"
   inkscape:export-xdpi="38.400002"
   inkscape:export-ydpi="38.400002"
   xmlns:inkscape="http://www.inkscape.org/namespaces/inkscape"
   xmlns:sodipodi="http://sodipodi.sourceforge.net/DTD/sodipodi-0.dtd"
   xmlns="http://www.w3.org/2000/svg"
   xmlns:svg="http://www.w3.org/2000/svg">
  <sodipodi:namedview
     id="namedview367"
     pagecolor="#ffffff"
     bordercolor="#666666"
     borderopacity="1.0"
     inkscape:showpageshadow="2"
     inkscape:pageopacity="0"
     inkscape:pagecheckerboard="0"
     inkscape:deskcolor="#d1d1d1"
     inkscape:document-units="mm"
     showgrid="false"
     inkscape:zoom="1.1893044"
     inkscape:cx="-0.42041382"
     inkscape:cy="139.15697"
     inkscape:window-width="1920"
     inkscape:window-height="1008"
     inkscape:window-x="0"
     inkscape:window-y="0"
     inkscape:window-maximized="1"
     inkscape:current-layer="layer1" />
  <defs
     id="defs362" />
  <g
     inkscape:label="Layer 1"
     inkscape:groupmode="layer"
     id="layer1"
     transform="translate(-1.909163,-1.7941856)">
    <g
       id="g22429"
       transform="matrix(1.7497218,0,0,1.7497218,-105.96747,4.7982436)">
      <path
         d="m 80.030839,9.4157198 c 2.689474,-1.4063885 5.828014,-1.9664494 8.832802,-1.5060047 1.242003,0.1927773 2.458841,0.5651483 3.5823,1.1310626 0.92264,0.4622499 1.776243,1.0572123 2.54686,1.7423813 1.45617,1.316181 2.582856,2.988049 3.29204,4.816261 0.576418,1.476574 0.753932,3.07749 0.744797,4.652969 0.0058,0.461156 -0.05164,0.920506 -0.04185,1.382373 -0.0033,1.087026 0.149124,2.166831 0.310938,3.240071 0.538617,3.394993 1.350704,6.751803 1.624934,10.184979 0.0815,0.989215 0.1029,1.983517 0.0615,2.975303 -0.0822,1.434014 -0.33676,2.890184 -1.001254,4.177262 -0.329155,0.619361 -0.737193,1.212135 -1.283086,1.660599 -0.320785,0.261869 -0.690639,0.464438 -1.086314,0.588452 -0.0036,-0.01384 -0.01127,-0.04108 -0.01526,-0.05492 C 97.411927,43.715483 97.300987,42.989614 96.946395,42.357507 96.768169,42.050563 96.552143,41.756309 96.263031,41.545425 95.601877,41.057354 94.83591,40.722784 94.047459,40.501287 93.350638,40.30014 92.61164,40.294341 91.922806,40.060864 91.448575,39.906653 90.98742,39.70846 90.560454,39.450256 90.201868,38.904747 89.774191,38.39846 89.259918,37.994087 c -0.05093,-0.389165 -0.04584,-0.781941 -0.03348,-1.172856 1.081938,-0.567337 2.103538,-1.251084 3.03132,-2.046427 0.878275,-0.764107 1.568914,-1.722414 2.130069,-2.736738 0.104759,-0.15164 0.04365,-0.341846 0.04294,-0.51132 -0.124014,-2.413765 -0.243324,-4.82753 -0.358257,-7.241295 -0.24223,0.463344 -0.413892,0.9623 -0.650651,1.429255 -1.115417,-1.276904 -2.23811,-2.547954 -3.35681,-3.822342 0.405139,1.106665 0.858308,2.195933 1.267057,3.301504 -1.485654,-0.767718 -2.962228,-1.552558 -4.448594,-2.318142 0.03239,0.565148 0.118544,1.130679 0.303334,1.667491 0.189495,0.557544 0.490259,1.081227 0.901579,1.504582 0.207274,0.20804 0.447316,0.379319 0.681176,0.556451 0.0593,0.04185 0.108369,0.0971 0.141848,0.163292 -0.256016,0.04365 -0.508804,-0.04436 -0.755355,-0.102899 -1.057978,-0.300763 -2.066066,-0.759348 -3.026944,-1.291072 -2.184281,-1.210001 -4.064188,-2.968738 -5.39596,-5.082123 -0.03271,-0.05563 -0.07308,-0.104759 -0.113457,-0.152734 -0.457162,1.655839 -0.784457,3.349917 -0.941239,5.06139 -0.07276,0.763396 -0.107275,1.531114 -0.216738,2.290845 -0.07746,0.569908 -0.212033,1.129257 -0.355303,1.685325 -0.137089,0.517884 -0.181125,1.063065 -0.08512,1.592546 0.184025,1.101249 0.812083,2.070825 1.547471,2.887996 0.442939,0.538616 0.971053,0.999772 1.50967,1.440195 0.714983,0.572807 1.488937,1.068481 2.297737,1.498018 0.08145,0.460445 0.125491,0.926305 0.126914,1.393971 -0.261103,0.104375 -0.497863,0.268761 -0.689546,0.473902 -0.18293,0.20328 -0.300763,0.452786 -0.422261,0.695016 -0.532435,0.431342 -1.125975,0.789216 -1.759121,1.052124 -0.654972,0.263674 -1.341618,0.439329 -2.030453,0.590258 -0.583693,0.130907 -1.195777,0.219691 -1.715467,0.535334 -0.609513,0.36515 -1.03068,0.984839 -1.24523,1.653323 -0.192777,0.60552 -0.317831,1.229585 -0.461867,1.847851 -0.483694,-0.394253 -0.912848,-0.850266 -1.305623,-1.333632 -0.895015,-1.083798 -1.603871,-2.332311 -2.001351,-3.684104 -0.270949,-0.93101 -0.395675,-1.903157 -0.388782,-2.872022 -0.01089,-1.19616 0.10257,-2.394509 0.362251,-3.562661 0.480794,-2.225747 1.506387,-4.292578 1.951898,-6.527734 0.252022,-1.200537 0.302951,-2.433021 0.26805,-3.656096 -0.02582,-0.425161 -0.01275,-0.852126 -0.04803,-1.276521 -0.01893,-0.726635 -0.0291,-1.453981 -0.0073,-2.180671 0.03381,-0.880846 0.131673,-1.760215 0.32259,-2.621094 0.29677,-1.304146 0.756832,-2.573774 1.382374,-3.756477 0.300052,-0.582271 0.709895,-1.098678 1.155789,-1.575096 0.904204,-0.968209 1.99123,-1.755237 3.159765,-2.3749802 m 16.97822,14.1476912 c -0.430576,1.720609 -0.846272,3.444446 -1.273621,5.165766 -0.0913,0.186924 0.219309,0.331288 0.335336,0.183642 0.863013,-0.93101 1.472909,-2.107532 1.678049,-3.364468 0.06471,-0.436758 0.08764,-0.897203 -0.05602,-1.321269 -0.105086,-0.316737 -0.390259,-0.531998 -0.683747,-0.663671 m -21.714476,0.72483 c -0.194582,0.275654 -0.255304,0.621165 -0.268378,0.952125 -0.02073,0.480795 0.07308,0.961207 0.24037,1.41071 0.161103,0.440423 0.401528,0.845945 0.644469,1.245614 0.292065,0.47609 0.610608,0.936151 0.949937,1.379802 0.103993,0.15711 0.356781,-0.02292 0.310227,-0.180743 -0.34294,-1.716232 -0.688834,-3.431699 -1.028875,-5.148315 -0.31236,-0.02582 -0.660771,0.07456 -0.84775,0.340807 z"
         id="path126"
         inkscape:connector-curvature="0"
         style="fill:#5f3e1a;fill-opacity:1;stroke:none;stroke-width:0.0273521" />
      <path
         d="m 79.619901,20.138605 c 0.04037,0.04803 0.08074,0.0971 0.113457,0.152733 1.331827,2.113385 3.211679,3.872123 5.39596,5.082124 0.960878,0.531724 1.968966,0.990308 3.026944,1.291072 0.246552,0.05853 0.499339,0.146552 0.755355,0.102898 -0.03348,-0.06619 -0.08255,-0.121443 -0.141848,-0.163292 -0.23386,-0.177132 -0.473902,-0.34841 -0.681176,-0.55645 -0.41132,-0.423355 -0.712084,-0.947038 -0.901579,-1.504582 -0.184736,-0.536812 -0.270949,-1.102343 -0.303334,-1.667492 1.486366,0.765585 2.96294,1.55037 4.448594,2.318142 -0.408804,-1.10557 -0.861918,-2.194839 -1.267057,-3.301503 1.1187,1.274333 2.241393,2.545438 3.35681,3.822341 0.236759,-0.466954 0.408421,-0.965965 0.650651,-1.429254 0.114933,2.413765 0.234188,4.82753 0.358257,7.241295 7.11e-4,0.169473 0.06182,0.359679 -0.04294,0.511319 -0.561155,1.014324 -1.251794,1.972631 -2.130069,2.736738 -0.927727,0.795399 -1.949327,1.479091 -3.03132,2.046427 -0.685552,0.347317 -1.388555,0.663343 -2.111525,0.925211 -0.09929,0.02801 -0.194582,0.09748 -0.300763,0.08545 -0.770672,-0.184025 -1.531825,-0.413125 -2.265736,-0.713178 -0.397863,-0.158532 -0.781175,-0.349833 -1.172145,-0.523682 -0.808855,-0.429537 -1.582755,-0.925211 -2.297738,-1.498018 -0.538616,-0.440423 -1.066675,-0.901579 -1.509669,-1.440196 -0.735388,-0.81717 -1.363446,-1.786801 -1.547471,-2.887995 -0.09601,-0.529536 -0.05202,-1.074663 0.08512,-1.592547 0.14327,-0.556067 0.277842,-1.115417 0.355303,-1.685324 0.109463,-0.759731 0.144036,-1.527449 0.216738,-2.290845 0.156672,-1.711528 0.484022,-3.405551 0.941184,-5.06139 z"
         id="path128"
         inkscape:connector-curvature="0"
         style="fill:#fc9838;fill-opacity:1;stroke:#d9ad8d;stroke-width:0.0273521" />
      <path
         d="m 97.009031,23.563411 c 0.293488,0.131673 0.578606,0.346934 0.683747,0.663725 0.143653,0.424067 0.120732,0.884457 0.05602,1.321269 -0.20514,1.256882 -0.815036,2.433404 -1.678049,3.364468 -0.116027,0.147647 -0.426583,0.0033 -0.335336,-0.183641 0.427349,-1.721375 0.843045,-3.445212 1.273621,-5.165821 z"
         id="path130"
         inkscape:connector-curvature="0"
         style="fill:#fc9838;fill-opacity:1;stroke:#d9ad8d;stroke-width:0.0273521" />
      <path
         d="m 75.294555,24.288241 c 0.186924,-0.266245 0.535335,-0.366572 0.84775,-0.340752 0.340041,1.716616 0.685935,3.432082 1.028875,5.148315 0.04655,0.157821 -0.206179,0.337853 -0.310227,0.180743 -0.339329,-0.443706 -0.657926,-0.903767 -0.949937,-1.379803 -0.242941,-0.399668 -0.483311,-0.80519 -0.644469,-1.245613 -0.167286,-0.449504 -0.261103,-0.92997 -0.24037,-1.41071 0.01307,-0.331015 0.07385,-0.676526 0.268378,-0.95218 z"
         id="path132"
         inkscape:connector-curvature="0"
         style="fill:#fc9838;fill-opacity:1;stroke:#d9ad8d;stroke-width:0.0273521" />
      <path
         d="m 83.376379,36.59492 c 0.390971,0.173849 0.774283,0.36515 1.172146,0.523682 0.73391,0.300053 1.495118,0.529153 2.265735,0.713178 0.106181,0.01198 0.201476,-0.05744 0.300764,-0.08545 0.723024,-0.261868 1.426027,-0.577894 2.111524,-0.925211 -0.01236,0.390971 -0.01745,0.783746 0.03348,1.172857 0.0011,0.01674 0.0033,0.05016 0.0044,0.0669 -0.51679,0.352404 -1.096162,0.612467 -1.708957,0.742991 -0.945561,0.211651 -1.943529,0.18873 -2.878532,-0.0651 -0.406944,-0.103665 -0.785168,-0.287689 -1.155789,-0.479701 -0.01307,0.03709 -0.02473,0.07598 -0.03528,0.115645 0.0084,-0.128719 0.02112,-0.257493 0.01745,-0.385883 -0.0015,-0.467611 -0.04546,-0.933472 -0.126914,-1.393916 z"
         id="path134"
         inkscape:connector-curvature="0"
         style="fill:#fc9838;fill-opacity:1;stroke:#cd9370;stroke-width:0.0273521" />
      <path
         style="fill:#800000;fill-opacity:1;stroke:none;stroke-width:0.0348512px;stroke-linecap:butt;stroke-linejoin:miter;stroke-opacity:1"
         d="m 77.196364,9.8169717 c 0,-21.2741177 21.371315,-1.376009 21.413549,1.7409383 6.326447,4.828246 2.658097,9.267667 0.404126,10.540458 C 94.877802,15.371912 52.611181,4.779029 77.196364,9.8169717 Z"
         id="path1083"
         inkscape:connector-curvature="0"
         sodipodi:nodetypes="cccc" />
    </g>
  </g>
</svg>
