<?xml version="1.0" encoding="UTF-8" standalone="no"?>
<svg
   version="1.1"
   id="svg188"
   width="256"
   height="132.68964"
   viewBox="0 0 256 132.68964"
   xml:space="preserve"
   sodipodi:docname="splash.svg"
   inkscape:version="1.2.2 (b0a8486541, 2022-12-01)"
   xmlns:inkscape="http://www.inkscape.org/namespaces/inkscape"
   xmlns:sodipodi="http://sodipodi.sourceforge.net/DTD/sodipodi-0.dtd"
   xmlns="http://www.w3.org/2000/svg"
   xmlns:svg="http://www.w3.org/2000/svg"><sodipodi:namedview
     id="namedview230"
     pagecolor="#ffffff"
     bordercolor="#666666"
     borderopacity="1.0"
     inkscape:showpageshadow="2"
     inkscape:pageopacity="0.0"
     inkscape:pagecheckerboard="0"
     inkscape:deskcolor="#d1d1d1"
     showgrid="false"
     inkscape:zoom="1.8125"
     inkscape:cx="357.51724"
     inkscape:cy="132.68966"
     inkscape:window-width="1920"
     inkscape:window-height="1008"
     inkscape:window-x="0"
     inkscape:window-y="0"
     inkscape:window-maximized="1"
     inkscape:current-layer="g369" /><defs
     id="defs192" /><g
     id="g194"
     transform="translate(10.83134,7.2361618)"><g
       id="g23493"
       transform="translate(-0.80592468,2)"><g
         id="g369"
         transform="matrix(2.0430109,0,0,2.0430109,10.456586,9.633387)"><rect
           style="opacity:1;fill:#c84c0c;fill-opacity:1;stroke:none;stroke-width:0.208638;stroke-linecap:round;stroke-linejoin:round"
           id="rect22105"
           width="125.30525"
           height="64.948082"
           x="-10.831325"
           y="-7.2361469"
           transform="translate(0.80592468,-2)" /><path
           style="fill:#000000;stroke:none;stroke-width:0.2;stroke-linecap:butt;stroke-linejoin:miter;stroke-dasharray:none;stroke-opacity:1"
           d="M 16.801342,19.874295 V 9.4303903 L 13.810146,4.3227751 H 6.3177021 L 3.0735075,9.4303903 V 21.835249 l 8.2523365,5.241542 v 9.16728 H 8.7384019 V 28.475233 H 3.0735075 v 10.252199 l 3.2372965,5.299159 h 7.285975 L 16.801342,38.79944 V 26.491092 L 14.936187,23.339409 9.1725919,20.011796 V 12.053031 H 11.55767 v 7.878098 z"
           id="path365-0" /><path
           id="path367-6"
           style="fill:#000000;stroke:none;stroke-width:0.2;stroke-linecap:butt;stroke-linejoin:miter;stroke-dasharray:none;stroke-opacity:1"
           d="M 21.441135,4.322197 18.505588,9.4303903 V 38.994071 l 3.019531,5.033203 h 7.1875 L 31.829807,38.826102 31.659885,9.4303903 28.663791,4.322197 Z m 2.380859,7.730834 h 2.691407 v 24.19104 h -2.691407 z" /><path
           style="fill:#000000;stroke:none;stroke-width:0.2;stroke-linecap:butt;stroke-linejoin:miter;stroke-dasharray:none;stroke-opacity:1"
           d="M 33.467301,44.026591 V 9.4303903 l 3.073612,-5.1076152 h 7.447529 l 3.028501,5.1076152 v 6.3955677 h -5.602472 v -3.772927 h -2.069995 v 31.97356 z"
           id="path1075-2" /><path
           style="fill:#000000;stroke:none;stroke-width:0.2;stroke-linecap:butt;stroke-linejoin:miter;stroke-dasharray:none;stroke-opacity:1"
           d="m 40.34303,20.240298 v 7.601199 h 6.308527 v -7.483735 z"
           id="path1077-6" /><path
           style="fill:#000000;stroke:none;stroke-width:0.2;stroke-linecap:butt;stroke-linejoin:miter;stroke-dasharray:none;stroke-opacity:1"
           d="M 48.501247,4.3227751 V 44.026591 h 5.214398 V 4.3227751 Z"
           id="path1079-1" /><path
           id="path1081-8"
           style="fill:#000000;stroke:none;stroke-width:0.2;stroke-linecap:butt;stroke-linejoin:miter;stroke-dasharray:none;stroke-opacity:1"
           d="m 58.532932,4.322197 -2.97461,5.1081933 V 44.027274 h 5.511719 v -7.783203 h 2.615234 v 7.783203 h 5.28125 V 9.4303903 L 65.991916,4.322197 Z m 4.832031,7.730834 V 28.144462 H 60.950901 V 12.053031 Z" /><path
           style="fill:#fcbcb0;fill-opacity:1;stroke:none;stroke-width:0.2;stroke-linecap:butt;stroke-linejoin:miter;stroke-dasharray:none;stroke-opacity:1"
           d="m 39.10403,18.240298 v 7.601199 h 6.308527 v -7.483735 z"
           id="path1077" /><g
           id="g414"
           transform="translate(0,2.9368419)"><path
             style="fill:#fcbcb0;fill-opacity:1;stroke:none;stroke-width:0.2;stroke-linecap:butt;stroke-linejoin:miter;stroke-dasharray:none;stroke-opacity:1"
             d="M 15.562342,14.937454 V 4.4935484 L 12.571146,-0.6140668 H 5.0787021 L 1.8345075,4.4935484 V 16.898408 l 8.2523365,5.241542 v 9.16728 H 7.4994019 V 23.538392 H 1.8345075 V 33.790591 L 5.071804,39.08975 h 7.285975 l 3.204563,-5.227151 V 21.554251 L 13.697187,18.402568 7.9335919,15.074955 V 7.1161895 H 10.31867 v 7.8780985 z"
             id="path365" /><path
             id="path367"
             style="fill:#fcbcb0;fill-opacity:1;stroke:none;stroke-width:0.2;stroke-linecap:butt;stroke-linejoin:miter;stroke-dasharray:none;stroke-opacity:1"
             d="M 20.202135,-0.6146449 17.266588,4.4935484 V 34.05723 l 3.019531,5.033203 h 7.1875 L 30.590807,33.889261 30.420885,4.4935484 27.424791,-0.6146449 Z m 2.380859,7.7308344 h 2.691407 V 31.30723 h -2.691407 z">
<animate
   attributeName="fill"
   attributeType="XML"
   begin="0s"
   dur="1.1s"
   values="#e69c21;#9c4a00;#522100;#9c4a00;#e69c21"
   calcMode="discrete"
   repeatCount="indefinite" />
</path><path
             style="fill:#fcbcb0;fill-opacity:1;stroke:none;stroke-width:0.2;stroke-linecap:butt;stroke-linejoin:miter;stroke-dasharray:none;stroke-opacity:1"
             d="M 32.228301,39.08975 V 4.4935484 l 3.073612,-5.1076152 h 7.447529 l 3.028501,5.1076152 V 10.889117 H 40.175471 V 7.1161895 H 38.105476 V 39.08975 Z"
             id="path1075" /><path
             style="fill:#fcbcb0;fill-opacity:1;stroke:none;stroke-width:0.2;stroke-linecap:butt;stroke-linejoin:miter;stroke-dasharray:none;stroke-opacity:1"
             d="M 47.262247,-0.6140668 V 39.08975 h 5.214398 V -0.6140668 Z"
             id="path1079" /><path
             id="path1081"
             style="fill:#fcbcb0;fill-opacity:1;stroke:none;stroke-width:0.2;stroke-linecap:butt;stroke-linejoin:miter;stroke-dasharray:none;stroke-opacity:1"
             d="m 57.293932,-0.6146449 -2.97461,5.1081933 V 39.090433 h 5.511719 V 31.30723 h 2.615234 v 7.783203 h 5.28125 V 4.4935484 l -2.974609,-5.1081933 z m 4.832031,7.7308344 V 23.207621 H 59.711901 V 7.1161895 Z" /></g><path
           d="m 85.22884,9.1130116 c 2.689474,-1.4063885 5.828014,-1.9664494 8.832802,-1.5060047 1.242003,0.1927773 2.458841,0.5651483 3.5823,1.1310626 0.92264,0.4622499 1.776243,1.0572123 2.546858,1.7423815 1.45618,1.31618 2.58286,2.988048 3.29205,4.81626 0.57642,1.476574 0.75394,3.07749 0.7448,4.652969 0.006,0.461156 -0.0516,0.920506 -0.0419,1.382373 -0.003,1.087026 0.14912,2.166831 0.31094,3.240071 0.53862,3.394993 1.3507,6.751803 1.62493,10.184979 0.0815,0.989215 0.1029,1.983517 0.0615,2.975303 -0.0822,1.434014 -0.33676,2.890184 -1.00125,4.177262 -0.32916,0.619361 -0.73719,1.212135 -1.28309,1.660599 -0.32078,0.261869 -0.69064,0.464438 -1.08632,0.588452 -0.004,-0.01384 -0.0113,-0.04108 -0.0153,-0.05492 -0.18727,-0.691025 -0.29821,-1.416894 -0.6528,-2.049001 -0.17822,-0.306944 -0.39425,-0.601198 -0.68336,-0.812082 -0.66116,-0.488071 -1.42713,-0.822641 -2.21558,-1.044138 -0.696821,-0.201147 -1.435819,-0.206946 -2.124653,-0.440423 -0.474231,-0.154211 -0.935386,-0.352404 -1.362352,-0.610608 -0.358586,-0.545509 -0.786263,-1.051796 -1.300536,-1.456169 -0.05093,-0.389165 -0.04584,-0.781941 -0.03348,-1.172856 1.081938,-0.567337 2.103538,-1.251084 3.03132,-2.046427 0.878275,-0.764107 1.568914,-1.722414 2.130069,-2.736738 0.104759,-0.15164 0.04365,-0.341846 0.04294,-0.51132 -0.124014,-2.413765 -0.243324,-4.82753 -0.358257,-7.241295 -0.24223,0.463344 -0.413892,0.9623 -0.650651,1.429255 -1.115417,-1.276904 -2.23811,-2.547954 -3.35681,-3.822342 0.405139,1.106665 0.858308,2.195933 1.267057,3.301504 -1.485654,-0.767718 -2.962228,-1.552558 -4.448594,-2.318142 0.03239,0.565148 0.118544,1.130679 0.303334,1.667491 0.189495,0.557544 0.490259,1.081227 0.901579,1.504582 0.207274,0.20804 0.447316,0.379319 0.681176,0.556451 0.0593,0.04185 0.108369,0.0971 0.141848,0.163292 -0.256016,0.04365 -0.508804,-0.04436 -0.755355,-0.102899 -1.057978,-0.300763 -2.066066,-0.759348 -3.026944,-1.291072 -2.184281,-1.210001 -4.064188,-2.968738 -5.39596,-5.082123 -0.03271,-0.05563 -0.07308,-0.104759 -0.113457,-0.152734 -0.457162,1.655839 -0.784457,3.349917 -0.941239,5.06139 -0.07276,0.763396 -0.107275,1.531114 -0.216738,2.290845 -0.07746,0.569908 -0.212033,1.129257 -0.355303,1.685325 -0.137089,0.517884 -0.181125,1.063065 -0.08512,1.592546 0.184025,1.101249 0.812083,2.070825 1.547471,2.887996 0.442939,0.538616 0.971053,0.999772 1.50967,1.440195 0.714983,0.572807 1.488937,1.068481 2.297737,1.498018 0.08145,0.460445 0.125491,0.926305 0.126914,1.393971 -0.261103,0.104375 -0.497863,0.268761 -0.689546,0.473902 -0.18293,0.20328 -0.300763,0.452786 -0.422261,0.695016 -0.532435,0.431342 -1.125975,0.789216 -1.759121,1.052124 -0.654972,0.263674 -1.341618,0.439329 -2.030453,0.590258 -0.583693,0.130907 -1.195777,0.219691 -1.715467,0.535334 -0.609513,0.36515 -1.03068,0.984839 -1.24523,1.653323 -0.192777,0.60552 -0.317831,1.229585 -0.461867,1.847851 -0.483694,-0.394253 -0.912848,-0.850266 -1.305623,-1.333632 -0.895015,-1.083798 -1.603871,-2.332311 -2.001351,-3.684104 -0.270949,-0.93101 -0.395675,-1.903157 -0.388782,-2.872022 -0.01089,-1.19616 0.10257,-2.394509 0.362251,-3.562661 0.480794,-2.225747 1.506387,-4.292578 1.951898,-6.527734 0.252022,-1.200537 0.302951,-2.433021 0.26805,-3.656096 -0.02582,-0.425161 -0.01275,-0.852126 -0.04803,-1.276521 -0.01893,-0.726635 -0.0291,-1.453981 -0.0073,-2.180671 0.03381,-0.880846 0.131673,-1.760215 0.32259,-2.621094 0.29677,-1.304146 0.756832,-2.573774 1.382374,-3.756477 0.300052,-0.582271 0.709895,-1.098678 1.155789,-1.575096 0.904204,-0.968208 1.99123,-1.7552362 3.159765,-2.3749794 M 102.20704,23.260702 c -0.43058,1.720609 -0.84628,3.444446 -1.27363,5.165766 -0.0913,0.186924 0.21931,0.331288 0.33534,0.183642 0.86302,-0.93101 1.47291,-2.107532 1.67806,-3.364468 0.0647,-0.436758 0.0876,-0.897203 -0.056,-1.321269 -0.10509,-0.316737 -0.39026,-0.531998 -0.68375,-0.663671 m -21.714482,0.72483 c -0.194582,0.275654 -0.255304,0.621165 -0.268378,0.952125 -0.02073,0.480795 0.07308,0.961207 0.24037,1.41071 0.161103,0.440423 0.401528,0.845945 0.644469,1.245614 0.292065,0.47609 0.610608,0.936151 0.949937,1.379802 0.103993,0.15711 0.356781,-0.02292 0.310227,-0.180743 -0.34294,-1.716232 -0.688834,-3.431699 -1.028875,-5.148315 -0.31236,-0.02582 -0.660771,0.07456 -0.84775,0.340807 z"
           id="path126"
           style="fill:#5f3e1a;fill-opacity:1;stroke:none;stroke-width:0.0273521" /><path
           d="m 84.817902,19.835896 c 0.04037,0.04803 0.08074,0.0971 0.113457,0.152733 1.331827,2.113385 3.211679,3.872123 5.39596,5.082124 0.960878,0.531724 1.968966,0.990308 3.026944,1.291072 0.246552,0.05853 0.499339,0.146552 0.755355,0.102898 -0.03348,-0.06619 -0.08255,-0.121443 -0.141848,-0.163292 -0.23386,-0.177132 -0.473902,-0.34841 -0.681176,-0.55645 -0.41132,-0.423355 -0.712084,-0.947038 -0.901579,-1.504582 -0.184736,-0.536812 -0.270949,-1.102343 -0.303334,-1.667492 1.486366,0.765585 2.96294,1.55037 4.448594,2.318142 -0.408804,-1.10557 -0.861918,-2.194839 -1.267057,-3.301503 1.1187,1.274333 2.241393,2.545438 3.35681,3.822341 0.236759,-0.466954 0.408421,-0.965965 0.650651,-1.429254 0.114933,2.413765 0.234188,4.82753 0.358257,7.241295 7.11e-4,0.169473 0.06182,0.359679 -0.04294,0.511319 -0.561155,1.014324 -1.251794,1.972631 -2.130069,2.736738 -0.927727,0.795399 -1.949327,1.479091 -3.03132,2.046427 -0.685552,0.347317 -1.388555,0.663343 -2.111525,0.925211 -0.09929,0.02801 -0.194582,0.09748 -0.300763,0.08545 -0.770672,-0.184025 -1.531825,-0.413125 -2.265736,-0.713178 -0.397863,-0.158532 -0.781175,-0.349833 -1.172145,-0.523682 -0.808855,-0.429537 -1.582755,-0.925211 -2.297738,-1.498018 -0.538616,-0.440423 -1.066675,-0.901579 -1.509669,-1.440196 -0.735388,-0.81717 -1.363446,-1.786801 -1.547471,-2.887995 -0.09601,-0.529536 -0.05202,-1.074663 0.08512,-1.592547 0.14327,-0.556067 0.277842,-1.115417 0.355303,-1.685324 0.109463,-0.759731 0.144036,-1.527449 0.216738,-2.290845 0.156672,-1.711528 0.484022,-3.405551 0.941184,-5.06139 z"
           id="path128"
           style="fill:#fc9838;fill-opacity:1;stroke:#d9ad8d;stroke-width:0.0273521" /><path
           d="m 102.20704,23.260702 c 0.29349,0.131673 0.5786,0.346934 0.68375,0.663725 0.14365,0.424067 0.12073,0.884457 0.056,1.321269 -0.20515,1.256882 -0.81504,2.433404 -1.67806,3.364468 -0.11603,0.147647 -0.42658,0.0033 -0.33534,-0.183641 0.42735,-1.721375 0.84305,-3.445212 1.27363,-5.165821 z"
           id="path130"
           style="fill:#fc9838;fill-opacity:1;stroke:#d9ad8d;stroke-width:0.0273521" /><path
           d="m 80.492556,23.985532 c 0.186924,-0.266245 0.535335,-0.366572 0.84775,-0.340752 0.340041,1.716616 0.685935,3.432082 1.028875,5.148315 0.04655,0.157821 -0.206179,0.337853 -0.310227,0.180743 -0.339329,-0.443706 -0.657926,-0.903767 -0.949937,-1.379803 -0.242941,-0.399668 -0.483311,-0.80519 -0.644469,-1.245613 -0.167286,-0.449504 -0.261103,-0.92997 -0.24037,-1.41071 0.01307,-0.331015 0.07385,-0.676526 0.268378,-0.95218 z"
           id="path132"
           style="fill:#fc9838;fill-opacity:1;stroke:#d9ad8d;stroke-width:0.0273521" /><path
           d="m 88.57438,36.292211 c 0.390971,0.173849 0.774283,0.36515 1.172146,0.523682 0.73391,0.300053 1.495118,0.529153 2.265735,0.713178 0.106181,0.01198 0.201476,-0.05744 0.300764,-0.08545 0.723024,-0.261868 1.426027,-0.577894 2.111524,-0.925211 -0.01236,0.390971 -0.01745,0.783746 0.03348,1.172857 0.0011,0.01674 0.0033,0.05016 0.0044,0.0669 -0.51679,0.352404 -1.096162,0.612467 -1.708957,0.742991 -0.945561,0.211651 -1.943529,0.18873 -2.878532,-0.0651 -0.406944,-0.103665 -0.785168,-0.287689 -1.155789,-0.479701 -0.01307,0.03709 -0.02473,0.07598 -0.03528,0.115645 0.0084,-0.128719 0.02112,-0.257493 0.01745,-0.385883 -0.0015,-0.467611 -0.04546,-0.933472 -0.126914,-1.393916 z"
           id="path134"
           style="fill:#fc9838;fill-opacity:1;stroke:#cd9370;stroke-width:0.0273521" /><path
           style="fill:#800000;fill-opacity:1;stroke:none;stroke-width:0.0348512px;stroke-linecap:butt;stroke-linejoin:miter;stroke-opacity:1"
           d="m 82.394365,9.5142635 c 0,-21.2741185 21.371325,-1.376009 21.413555,1.7409375 6.32645,4.828246 2.6581,9.267667 0.40413,10.540458 C 100.0758,15.069203 57.809182,4.4763208 82.394365,9.5142635 Z"
           id="path1083" /></g></g></g></svg>
